<svg viewBox="0 0 1200 675" xmlns="http://www.w3.org/2000/svg"><rect width="1200" height="675" fill="#0d1117"/><rect x="0" y="0" width="1200" height="8" fill="#8c1d40"/><text x="48" y="-99" font-family="-apple-system,Segoe UI,Roboto,Arial,sans-serif" font-size="30" font-weight="700" fill="#e6edf3"></text><text x="1152" y="40" text-anchor="end" font-family="-apple-system,Segoe UI,Roboto,Arial,sans-serif" font-size="15" fill="#8c1d40" font-weight="700" letter-spacing="1">BIO 511 · BIG DATA</text><circle cx="820" cy="120" r="4" fill="#58a6ff" opacity="0.35"/><circle cx="873" cy="217" r="7" fill="#8c1d40" opacity="0.35"/><circle cx="926" cy="314" r="10" fill="#8b949e" opacity="0.35"/><circle cx="979" cy="411" r="13" fill="#58a6ff" opacity="0.35"/><circle cx="1032" cy="508" r="4" fill="#8c1d40" opacity="0.35"/><circle cx="1085" cy="175" r="7" fill="#8b949e" opacity="0.35"/><circle cx="1138" cy="272" r="10" fill="#58a6ff" opacity="0.35"/><circle cx="831" cy="369" r="13" fill="#8c1d40" opacity="0.35"/><circle cx="884" cy="466" r="4" fill="#8b949e" opacity="0.35"/><circle cx="937" cy="133" r="7" fill="#58a6ff" opacity="0.35"/><circle cx="990" cy="230" r="10" fill="#8c1d40" opacity="0.35"/><circle cx="1043" cy="327" r="13" fill="#8b949e" opacity="0.35"/><circle cx="1096" cy="424" r="4" fill="#58a6ff" opacity="0.35"/><circle cx="1149" cy="521" r="7" fill="#8c1d40" opacity="0.35"/><circle cx="842" cy="188" r="10" fill="#8b949e" opacity="0.35"/><circle cx="895" cy="285" r="13" fill="#58a6ff" opacity="0.35"/><circle cx="948" cy="382" r="4" fill="#8c1d40" opacity="0.35"/><circle cx="1001" cy="479" r="7" fill="#8b949e" opacity="0.35"/><circle cx="1054" cy="146" r="10" fill="#58a6ff" opacity="0.35"/><circle cx="1107" cy="243" r="13" fill="#8c1d40" opacity="0.35"/><circle cx="1160" cy="340" r="4" fill="#8b949e" opacity="0.35"/><circle cx="853" cy="437" r="7" fill="#58a6ff" opacity="0.35"/><circle cx="906" cy="534" r="10" fill="#8c1d40" opacity="0.35"/><circle cx="959" cy="201" r="13" fill="#8b949e" opacity="0.35"/><circle cx="1012" cy="298" r="4" fill="#58a6ff" opacity="0.35"/><circle cx="1065" cy="395" r="7" fill="#8c1d40" opacity="0.35"/><text x="48" y="296" font-family="-apple-system,Segoe UI,Roboto,Arial,sans-serif" font-size="46" font-weight="800" fill="#e6edf3"><tspan x="48" dy="0">Encoded Injustice</tspan></text><text x="50" y="378" font-family="-apple-system,Segoe UI,Roboto,Arial,sans-serif" font-size="21" fill="#8b949e"><tspan x="50" dy="0">Big-data ethics: algorithmic fairness and the COMPAS</tspan><tspan x="50" dy="30">sentencing algorithm — why calibration and</tspan><tspan x="50" dy="30">error-rate parity cannot both hold.</tspan></text></svg>